<?xml version="1.0" encoding="utf-8"?>
<!-- Generator: Adobe Illustrator 25.0.1, SVG Export Plug-In . SVG Version: 6.00 Build 0)  -->
<svg version="1.1" id="Ebene_1" xmlns="http://www.w3.org/2000/svg" xmlns:xlink="http://www.w3.org/1999/xlink" x="0px" y="0px"
	 viewBox="0 0 31.2 31.2" style="enable-background:new 0 0 31.2 31.2;" xml:space="preserve">
<style type="text/css">
	.st0{fill-rule:evenodd;clip-rule:evenodd;fill:#222222;}
	.st1{fill-rule:evenodd;clip-rule:evenodd;fill:#03A9F4;}
</style>
<desc>Created using Figma</desc>
<circle class="st0" cx="16.1" cy="15.6" r="1.9"/>
<rect x="18" y="8.8" transform="matrix(0.7071 -0.7071 0.7071 0.7071 -0.6056 18.3855)" class="st0" width="7.8" height="2.2"/>
<rect x="20.9" y="17.4" transform="matrix(0.7071 -0.7071 0.7071 0.7071 -8.6044 21.7623)" class="st0" width="2.2" height="7.8"/>
<g>
	<path class="st1" d="M19.3,23.4c-1,0.4-2.1,0.6-3.2,0.6c-4.7,0-8.5-3.8-8.5-8.5S11.4,7,16.1,7c1.1,0,2.2,0.2,3.2,0.6L22,4.9l0,0
		c-1.7-1-3.7-1.5-5.9-1.5c-6.6,0-12,5.4-12,12s5.4,12,12,12c2.1,0,4.1-0.6,5.9-1.5L19.3,23.4z"/>
</g>
</svg>
